<mxfile host="app.diagrams.net" modified="2021-04-28T14:11:17.162Z" agent="5.0 (Macintosh; Intel Mac OS X 10_14_6) AppleWebKit/537.36 (KHTML, like Gecko) Chrome/90.0.4430.85 Safari/537.36" etag="pwa0s8-nvDSaPqE6Ac9v" version="14.6.6" type="github">
  <diagram id="m9owKEzCmg-of7IDKO_d" name="Page-1">
    <mxGraphModel dx="1554" dy="866" grid="1" gridSize="10" guides="1" tooltips="1" connect="1" arrows="1" fold="1" page="1" pageScale="1" pageWidth="850" pageHeight="1100" math="0" shadow="0">
      <root>
        <mxCell id="0" />
        <mxCell id="1" parent="0" />
        <mxCell id="QvPH2QRC0DaaeRTukPAS-27" style="edgeStyle=orthogonalEdgeStyle;rounded=0;orthogonalLoop=1;jettySize=auto;html=1;entryX=-0.014;entryY=-0.062;entryDx=0;entryDy=0;entryPerimeter=0;" edge="1" parent="1" source="QvPH2QRC0DaaeRTukPAS-2" target="QvPH2QRC0DaaeRTukPAS-26">
          <mxGeometry relative="1" as="geometry" />
        </mxCell>
        <mxCell id="QvPH2QRC0DaaeRTukPAS-2" value="Pac man" style="swimlane;fontStyle=0;childLayout=stackLayout;horizontal=1;startSize=26;fillColor=none;horizontalStack=0;resizeParent=1;resizeParentMax=0;resizeLast=0;collapsible=1;marginBottom=0;" vertex="1" parent="1">
          <mxGeometry x="30" y="350" width="240" height="112" as="geometry" />
        </mxCell>
        <mxCell id="QvPH2QRC0DaaeRTukPAS-3" value="Speed; x val, y val" style="text;strokeColor=none;fillColor=none;align=left;verticalAlign=top;spacingLeft=4;spacingRight=4;overflow=hidden;rotatable=0;points=[[0,0.5],[1,0.5]];portConstraint=eastwest;" vertex="1" parent="QvPH2QRC0DaaeRTukPAS-2">
          <mxGeometry y="26" width="240" height="26" as="geometry" />
        </mxCell>
        <mxCell id="QvPH2QRC0DaaeRTukPAS-4" value="Collision detection for the pellets, boolean&#xa;" style="text;strokeColor=none;fillColor=none;align=left;verticalAlign=top;spacingLeft=4;spacingRight=4;overflow=hidden;rotatable=0;points=[[0,0.5],[1,0.5]];portConstraint=eastwest;" vertex="1" parent="QvPH2QRC0DaaeRTukPAS-2">
          <mxGeometry y="52" width="240" height="26" as="geometry" />
        </mxCell>
        <mxCell id="QvPH2QRC0DaaeRTukPAS-5" value="Collision detection for ghosts; boolean" style="text;strokeColor=none;fillColor=none;align=left;verticalAlign=top;spacingLeft=4;spacingRight=4;overflow=hidden;rotatable=0;points=[[0,0.5],[1,0.5]];portConstraint=eastwest;" vertex="1" parent="QvPH2QRC0DaaeRTukPAS-2">
          <mxGeometry y="78" width="240" height="34" as="geometry" />
        </mxCell>
        <mxCell id="QvPH2QRC0DaaeRTukPAS-7" value="Ghosts" style="swimlane;fontStyle=0;childLayout=stackLayout;horizontal=1;startSize=26;fillColor=none;horizontalStack=0;resizeParent=1;resizeParentMax=0;resizeLast=0;collapsible=1;marginBottom=0;" vertex="1" parent="1">
          <mxGeometry x="570" y="320" width="280" height="104" as="geometry" />
        </mxCell>
        <mxCell id="QvPH2QRC0DaaeRTukPAS-8" value="Speed; x val, y val" style="text;strokeColor=none;fillColor=none;align=left;verticalAlign=top;spacingLeft=4;spacingRight=4;overflow=hidden;rotatable=0;points=[[0,0.5],[1,0.5]];portConstraint=eastwest;" vertex="1" parent="QvPH2QRC0DaaeRTukPAS-7">
          <mxGeometry y="26" width="280" height="26" as="geometry" />
        </mxCell>
        <mxCell id="QvPH2QRC0DaaeRTukPAS-9" value="Tracking Pac man; x val of pman, y val of pmanÂ " style="text;strokeColor=none;fillColor=none;align=left;verticalAlign=top;spacingLeft=4;spacingRight=4;overflow=hidden;rotatable=0;points=[[0,0.5],[1,0.5]];portConstraint=eastwest;" vertex="1" parent="QvPH2QRC0DaaeRTukPAS-7">
          <mxGeometry y="52" width="280" height="18" as="geometry" />
        </mxCell>
        <mxCell id="QvPH2QRC0DaaeRTukPAS-10" value="Collision detection for pman; boolean" style="text;strokeColor=none;fillColor=none;align=left;verticalAlign=top;spacingLeft=4;spacingRight=4;overflow=hidden;rotatable=0;points=[[0,0.5],[1,0.5]];portConstraint=eastwest;" vertex="1" parent="QvPH2QRC0DaaeRTukPAS-7">
          <mxGeometry y="70" width="280" height="34" as="geometry" />
        </mxCell>
        <mxCell id="QvPH2QRC0DaaeRTukPAS-29" style="edgeStyle=orthogonalEdgeStyle;rounded=0;orthogonalLoop=1;jettySize=auto;html=1;entryX=0.951;entryY=1.031;entryDx=0;entryDy=0;entryPerimeter=0;" edge="1" parent="1" source="QvPH2QRC0DaaeRTukPAS-11" target="QvPH2QRC0DaaeRTukPAS-26">
          <mxGeometry relative="1" as="geometry" />
        </mxCell>
        <mxCell id="QvPH2QRC0DaaeRTukPAS-11" value="Pellets" style="swimlane;fontStyle=0;childLayout=stackLayout;horizontal=1;startSize=26;fillColor=none;horizontalStack=0;resizeParent=1;resizeParentMax=0;resizeLast=0;collapsible=1;marginBottom=0;" vertex="1" parent="1">
          <mxGeometry x="270" y="550" width="240" height="78" as="geometry" />
        </mxCell>
        <mxCell id="QvPH2QRC0DaaeRTukPAS-12" value="Speed; x val, y val" style="text;strokeColor=none;fillColor=none;align=left;verticalAlign=top;spacingLeft=4;spacingRight=4;overflow=hidden;rotatable=0;points=[[0,0.5],[1,0.5]];portConstraint=eastwest;" vertex="1" parent="QvPH2QRC0DaaeRTukPAS-11">
          <mxGeometry y="26" width="240" height="26" as="geometry" />
        </mxCell>
        <mxCell id="QvPH2QRC0DaaeRTukPAS-13" value="Collision detection for pman, boolean&#xa;" style="text;strokeColor=none;fillColor=none;align=left;verticalAlign=top;spacingLeft=4;spacingRight=4;overflow=hidden;rotatable=0;points=[[0,0.5],[1,0.5]];portConstraint=eastwest;" vertex="1" parent="QvPH2QRC0DaaeRTukPAS-11">
          <mxGeometry y="52" width="240" height="26" as="geometry" />
        </mxCell>
        <mxCell id="QvPH2QRC0DaaeRTukPAS-15" value="Background" style="swimlane;fontStyle=0;childLayout=stackLayout;horizontal=1;startSize=26;fillColor=none;horizontalStack=0;resizeParent=1;resizeParentMax=0;resizeLast=0;collapsible=1;marginBottom=0;" vertex="1" parent="1">
          <mxGeometry x="500" y="100" width="240" height="112" as="geometry" />
        </mxCell>
        <mxCell id="QvPH2QRC0DaaeRTukPAS-16" value="Random generation; void" style="text;strokeColor=none;fillColor=none;align=left;verticalAlign=top;spacingLeft=4;spacingRight=4;overflow=hidden;rotatable=0;points=[[0,0.5],[1,0.5]];portConstraint=eastwest;" vertex="1" parent="QvPH2QRC0DaaeRTukPAS-15">
          <mxGeometry y="26" width="240" height="26" as="geometry" />
        </mxCell>
        <mxCell id="QvPH2QRC0DaaeRTukPAS-17" value="Placement for pellets; void" style="text;strokeColor=none;fillColor=none;align=left;verticalAlign=top;spacingLeft=4;spacingRight=4;overflow=hidden;rotatable=0;points=[[0,0.5],[1,0.5]];portConstraint=eastwest;" vertex="1" parent="QvPH2QRC0DaaeRTukPAS-15">
          <mxGeometry y="52" width="240" height="26" as="geometry" />
        </mxCell>
        <mxCell id="QvPH2QRC0DaaeRTukPAS-18" value="Allowing ghosts to leave their box; boolean" style="text;strokeColor=none;fillColor=none;align=left;verticalAlign=top;spacingLeft=4;spacingRight=4;overflow=hidden;rotatable=0;points=[[0,0.5],[1,0.5]];portConstraint=eastwest;" vertex="1" parent="QvPH2QRC0DaaeRTukPAS-15">
          <mxGeometry y="78" width="240" height="34" as="geometry" />
        </mxCell>
        <mxCell id="QvPH2QRC0DaaeRTukPAS-19" value="Random Generation" style="swimlane;fontStyle=0;childLayout=stackLayout;horizontal=1;startSize=26;fillColor=none;horizontalStack=0;resizeParent=1;resizeParentMax=0;resizeLast=0;collapsible=1;marginBottom=0;" vertex="1" parent="1">
          <mxGeometry x="440" y="680" width="240" height="110" as="geometry" />
        </mxCell>
        <mxCell id="QvPH2QRC0DaaeRTukPAS-20" value="Finding distance between open spaces; int&#xa;&#xa;Placing in areas that are available; void&#xa;&#xa;no placing in waiting area for ghosts&#xa;" style="text;strokeColor=none;fillColor=none;align=left;verticalAlign=top;spacingLeft=4;spacingRight=4;overflow=hidden;rotatable=0;points=[[0,0.5],[1,0.5]];portConstraint=eastwest;" vertex="1" parent="QvPH2QRC0DaaeRTukPAS-19">
          <mxGeometry y="26" width="240" height="84" as="geometry" />
        </mxCell>
        <mxCell id="QvPH2QRC0DaaeRTukPAS-23" value="Main" style="swimlane;fontStyle=0;childLayout=stackLayout;horizontal=1;startSize=26;fillColor=none;horizontalStack=0;resizeParent=1;resizeParentMax=0;resizeLast=0;collapsible=1;marginBottom=0;" vertex="1" parent="1">
          <mxGeometry x="60" y="80" width="350" height="84" as="geometry" />
        </mxCell>
        <mxCell id="QvPH2QRC0DaaeRTukPAS-25" value="Generating the random maze; array" style="text;strokeColor=none;fillColor=none;align=left;verticalAlign=top;spacingLeft=4;spacingRight=4;overflow=hidden;rotatable=0;points=[[0,0.5],[1,0.5]];portConstraint=eastwest;" vertex="1" parent="QvPH2QRC0DaaeRTukPAS-23">
          <mxGeometry y="26" width="350" height="26" as="geometry" />
        </mxCell>
        <mxCell id="QvPH2QRC0DaaeRTukPAS-26" value="Generating different colors, speeds, and sizes for ghosts; array" style="text;strokeColor=none;fillColor=none;align=left;verticalAlign=top;spacingLeft=4;spacingRight=4;overflow=hidden;rotatable=0;points=[[0,0.5],[1,0.5]];portConstraint=eastwest;" vertex="1" parent="QvPH2QRC0DaaeRTukPAS-23">
          <mxGeometry y="52" width="350" height="32" as="geometry" />
        </mxCell>
        <mxCell id="QvPH2QRC0DaaeRTukPAS-28" style="edgeStyle=orthogonalEdgeStyle;rounded=0;orthogonalLoop=1;jettySize=auto;html=1;entryX=0.463;entryY=1.038;entryDx=0;entryDy=0;entryPerimeter=0;" edge="1" parent="1" source="QvPH2QRC0DaaeRTukPAS-20" target="QvPH2QRC0DaaeRTukPAS-13">
          <mxGeometry relative="1" as="geometry" />
        </mxCell>
        <mxCell id="QvPH2QRC0DaaeRTukPAS-30" style="edgeStyle=orthogonalEdgeStyle;rounded=0;orthogonalLoop=1;jettySize=auto;html=1;entryX=1;entryY=0.5;entryDx=0;entryDy=0;" edge="1" parent="1" source="QvPH2QRC0DaaeRTukPAS-17" target="QvPH2QRC0DaaeRTukPAS-25">
          <mxGeometry relative="1" as="geometry" />
        </mxCell>
        <mxCell id="QvPH2QRC0DaaeRTukPAS-31" style="edgeStyle=orthogonalEdgeStyle;rounded=0;orthogonalLoop=1;jettySize=auto;html=1;entryX=1.006;entryY=1.031;entryDx=0;entryDy=0;entryPerimeter=0;" edge="1" parent="1" source="QvPH2QRC0DaaeRTukPAS-9" target="QvPH2QRC0DaaeRTukPAS-26">
          <mxGeometry relative="1" as="geometry" />
        </mxCell>
      </root>
    </mxGraphModel>
  </diagram>
</mxfile>
